# xmcd
#
# Track frame offsets: 
#        180
#        14000
#        26764
#        34261
#        48655
#        61321
#        72084
#        83210
#        97088
#        108960
#        122733
#        135197
#        148108
#        161904
#        173469
#        186566
#        198699
#        212950
#
# Disc length: 3028 seconds
#
# Revision: 0
# Processed by: cddbd v1.5.2PL0 Copyright (c) Steve Scherf et al.
# Submitted via: ExactAudioCopyFreeDBPlugin 1.0
#
DISCID=100bd212
DTITLE=Various Artist - The Voices Of The Great Divas [CD 9)
DYEAR=2005
DGENRE=Jazz
TTITLE0=Edith Piaf - Dans Un Bouge Du Vieux Port
TTITLE1=Dinah Washington - Just One More Chance
TTITLE2=Mildred Bailey - Please Don't Talk About Me When I'm Gone
TTITLE3=Ella Fitzgerald - Dedicated To You
TTITLE4=Helen Humes - He Don't Love Me Anymore
TTITLE5=Peggy Lee - 'taint't So, Honey
TTITLE6=Rosemary Clooney - Lovely Weather For Ducks
TTITLE7=Judy Garland - All God's Chillun Got Rhythm
TTITLE8=Billie Holiday - Billie's Blues
TTITLE9=Peggy Lee - Ev'rything I Love
TTITLE10=Billie Holiday - My First Impression Of You
TTITLE11=Dinah Washington - Ain't Nothing Good
TTITLE12=Billie Holiday - Careless
TTITLE13=Jo Stafford - Sugar (That Sugar Baby O'Mine)
TTITLE14=Anita O'Day - Georgia On My Mind
TTITLE15=Jo Stafford - Walkin' My Baby Back Home
TTITLE16=Judy Garland - You Made Me Love You
TTITLE17=Billie Holiday - As Time Goes By
EXTD=
EXTT0=
EXTT1=
EXTT2=
EXTT3=
EXTT4=
EXTT5=
EXTT6=
EXTT7=
EXTT8=
EXTT9=
EXTT10=
EXTT11=
EXTT12=
EXTT13=
EXTT14=
EXTT15=
EXTT16=
EXTT17=
PLAYORDER=
